<?xml version="1.0" encoding="UTF-8" standalone="no"?>
<!-- Created with Inkscape (http://www.inkscape.org/) -->

<svg
   xmlns:dc="http://purl.org/dc/elements/1.1/"
   xmlns:cc="http://creativecommons.org/ns#"
   xmlns:rdf="http://www.w3.org/1999/02/22-rdf-syntax-ns#"
   xmlns:svg="http://www.w3.org/2000/svg"
   xmlns="http://www.w3.org/2000/svg"
   xmlns:sodipodi="http://sodipodi.sourceforge.net/DTD/sodipodi-0.dtd"
   xmlns:inkscape="http://www.inkscape.org/namespaces/inkscape"
   width="28.533875mm"
   height="31.62434mm"
   viewBox="0 0 28.533875 31.62434"
   version="1.1"
   id="svg8512"
   inkscape:version="0.92.5 (2060ec1f9f, 2020-04-08)"
   sodipodi:docname="pyro_multiburst.svg">
  <defs
     id="defs8506">
    <inkscape:path-effect
       effect="spiro"
       id="path-effect946-0"
       is_visible="true" />
    <inkscape:path-effect
       effect="spiro"
       id="path-effect946-0-8"
       is_visible="true" />
    <inkscape:path-effect
       effect="spiro"
       id="path-effect934-9"
       is_visible="true" />
    <inkscape:path-effect
       effect="spiro"
       id="path-effect946-7"
       is_visible="true" />
    <inkscape:path-effect
       effect="spiro"
       id="path-effect930-5"
       is_visible="true" />
    <inkscape:path-effect
       effect="spiro"
       id="path-effect914-6"
       is_visible="true" />
    <inkscape:path-effect
       effect="spiro"
       id="path-effect1168"
       is_visible="true" />
    <inkscape:path-effect
       effect="spiro"
       id="path-effect1172"
       is_visible="true" />
    <inkscape:path-effect
       effect="spiro"
       id="path-effect892-1"
       is_visible="true" />
    <inkscape:path-effect
       effect="spiro"
       id="path-effect926-7"
       is_visible="true" />
    <inkscape:path-effect
       effect="spiro"
       id="path-effect938-6"
       is_visible="true" />
    <inkscape:path-effect
       effect="spiro"
       id="path-effect1188"
       is_visible="true" />
    <inkscape:path-effect
       effect="spiro"
       id="path-effect828-2"
       is_visible="true" />
    <inkscape:path-effect
       effect="spiro"
       id="path-effect844-1"
       is_visible="true" />
    <inkscape:path-effect
       effect="spiro"
       id="path-effect856-7"
       is_visible="true" />
    <inkscape:path-effect
       effect="spiro"
       id="path-effect860-8"
       is_visible="true" />
    <inkscape:path-effect
       effect="spiro"
       id="path-effect864-5"
       is_visible="true" />
    <inkscape:path-effect
       effect="spiro"
       id="path-effect868-7"
       is_visible="true" />
    <inkscape:path-effect
       effect="spiro"
       id="path-effect872-4"
       is_visible="true" />
    <inkscape:path-effect
       effect="spiro"
       id="path-effect876-1"
       is_visible="true" />
    <inkscape:path-effect
       effect="spiro"
       id="path-effect1176"
       is_visible="true" />
    <inkscape:path-effect
       effect="spiro"
       id="path-effect1180"
       is_visible="true" />
    <inkscape:path-effect
       effect="spiro"
       id="path-effect1184"
       is_visible="true" />
    <inkscape:path-effect
       effect="spiro"
       id="path-effect1192"
       is_visible="true" />
  </defs>
  <sodipodi:namedview
     id="base"
     pagecolor="#ffffff"
     bordercolor="#666666"
     borderopacity="1.0"
     inkscape:pageopacity="0.0"
     inkscape:pageshadow="2"
     inkscape:zoom="0.35"
     inkscape:cx="-290.36343"
     inkscape:cy="-300.23748"
     inkscape:document-units="mm"
     inkscape:current-layer="layer1"
     showgrid="false"
     inkscape:window-width="3840"
     inkscape:window-height="2017"
     inkscape:window-x="1440"
     inkscape:window-y="56"
     inkscape:window-maximized="1" />
  <metadata
     id="metadata8509">
    <rdf:RDF>
      <cc:Work
         rdf:about="">
        <dc:format>image/svg+xml</dc:format>
        <dc:type
           rdf:resource="http://purl.org/dc/dcmitype/StillImage" />
        <dc:title></dc:title>
      </cc:Work>
    </rdf:RDF>
  </metadata>
  <g
     inkscape:label="Layer 1"
     inkscape:groupmode="layer"
     id="layer1"
     transform="translate(-44.697349,-37.771161)">
    <g
       id="g1270"
       transform="translate(-10.080571,-110.25631)">
      <path
         transform="rotate(30.8,47.708269,112.34846)"
         sodipodi:nodetypes="ccccccc"
         inkscape:original-d="m 97.419741,152.20673 c 1.336614,0.80155 1.782059,0.20018 3.140419,1.00226 1.35835,0.80207 4.20949,2.87315 4.20949,2.87315 0,0 -1.64789,-2.3166 -2.40542,-3.40768 -0.75753,-1.09109 -0.735,-2.60588 -0.735,-2.60588 l -4.429652,-0.64226 z"
         inkscape:path-effect="#path-effect946-0"
         inkscape:connector-curvature="0"
         id="path944-4"
         d="m 97.419741,152.20673 c 1.080273,0.21364 2.136107,0.55061 3.140419,1.00226 1.55744,0.7004 2.98974,1.678 4.20949,2.87315 -1.02479,-0.95427 -1.84942,-2.1225 -2.40542,-3.40768 -0.35942,-0.83079 -0.60733,-1.70973 -0.735,-2.60588 l -4.429652,-0.64226 z"
         style="fill:#f6c38e;fill-opacity:1;stroke:#ff7f01;stroke-width:0.26458332px;stroke-linecap:butt;stroke-linejoin:miter;stroke-opacity:1" />
      <path
         transform="rotate(40.800001,58.512665,118.89728)"
         sodipodi:nodetypes="ccccccc"
         inkscape:original-d="m 97.419741,152.20673 c 1.336614,0.80155 1.782059,0.20018 3.140419,1.00226 1.35835,0.80207 4.20949,2.87315 4.20949,2.87315 0,0 -1.64789,-2.3166 -2.40542,-3.40768 -0.75753,-1.09109 -0.735,-2.60588 -0.735,-2.60588 l -4.429652,-0.64226 z"
         inkscape:path-effect="#path-effect946-0-8"
         inkscape:connector-curvature="0"
         id="path944-4-8"
         d="m 97.419741,152.20673 c 1.080273,0.21364 2.136107,0.55061 3.140419,1.00226 1.55744,0.7004 2.98974,1.678 4.20949,2.87315 -1.02479,-0.95427 -1.84942,-2.1225 -2.40542,-3.40768 -0.35942,-0.83079 -0.60733,-1.70973 -0.735,-2.60588 l -4.429652,-0.64226 z"
         style="fill:#f6c38e;fill-opacity:1;stroke:#ff7f01;stroke-width:0.26458332px;stroke-linecap:butt;stroke-linejoin:miter;stroke-opacity:1" />
      <path
         transform="translate(-24.209154,15.44089)"
         sodipodi:nodetypes="ccccccccccc"
         inkscape:original-d="m 98.689273,139.91233 c 0,0 1.202978,0.64569 3.608137,-1.67043 2.40516,-2.31608 4.07586,-2.6727 4.07586,-2.6727 0,0 -2.91743,2.18244 -3.94223,4.81085 -1.0248,2.62842 -0.93544,2.13816 -0.93544,2.13816 0,0 0.95798,-0.49025 2.00452,-0.0668 1.04655,0.42344 2.33861,-0.735 2.33861,-0.735 0,0 -0.267,1.09109 -1.80407,1.73725 -1.53706,0.64617 -1.8308,2.29852 -1.8308,2.29852 l -3.251271,-2.19289 z"
         inkscape:path-effect="#path-effect934-9"
         inkscape:connector-curvature="0"
         id="path932-8"
         d="m 98.689273,139.91233 c 1.237689,-0.47669 2.443887,-1.03511 3.608137,-1.67043 1.4277,-0.77908 2.79225,-1.67387 4.07586,-2.6727 -1.61667,1.31996 -2.96575,2.96629 -3.94223,4.81085 -0.36431,0.68818 -0.67728,1.40354 -0.93544,2.13816 0.66757,0.0593 1.34238,0.0368 2.00452,-0.0668 0.81031,-0.12684 1.60143,-0.37548 2.33861,-0.735 -0.6357,0.54195 -1.23852,1.12245 -1.80407,1.73725 -0.6637,0.7215 -1.27602,1.49026 -1.8308,2.29852 l -3.251271,-2.19289 z"
         style="fill:#f6c38e;fill-opacity:1;stroke:#ff7f01;stroke-width:0.26458332px;stroke-linecap:butt;stroke-linejoin:miter;stroke-opacity:1" />
      <path
         transform="rotate(-10,194.74756,287.95564)"
         sodipodi:nodetypes="ccccccc"
         inkscape:original-d="m 97.419741,152.20673 c 1.336614,0.80155 1.782059,0.20018 3.140419,1.00226 1.35835,0.80207 4.20949,2.87315 4.20949,2.87315 0,0 -1.64789,-2.3166 -2.40542,-3.40768 -0.75753,-1.09109 -0.735,-2.60588 -0.735,-2.60588 l -4.429652,-0.64226 z"
         inkscape:path-effect="#path-effect946-7"
         inkscape:connector-curvature="0"
         id="path944-5"
         d="m 97.419741,152.20673 c 1.080273,0.21364 2.136107,0.55061 3.140419,1.00226 1.55744,0.7004 2.98974,1.678 4.20949,2.87315 -1.02479,-0.95427 -1.84942,-2.1225 -2.40542,-3.40768 -0.35942,-0.83079 -0.60733,-1.70973 -0.735,-2.60588 l -4.429652,-0.64226 z"
         style="fill:#f6c38e;fill-opacity:1;stroke:#ff7f01;stroke-width:0.26458332px;stroke-linecap:butt;stroke-linejoin:miter;stroke-opacity:1" />
      <path
         transform="translate(-25.612319,19.369752)"
         sodipodi:nodetypes="cccccc"
         inkscape:original-d="m 83.922631,147.79679 c -1.046541,0.73472 -2.137892,1.51426 -3.207234,2.27178 -1.069343,0.75753 -0.267269,0.13364 -0.267269,0.13364 0,0 3.118408,-0.5348 4.677217,-0.80181 l 0.133634,-1.13589 z"
         inkscape:path-effect="#path-effect930-5"
         inkscape:connector-curvature="0"
         id="path928-8"
         d="m 83.922631,147.79679 c -0.954455,0.90385 -2.037899,1.67129 -3.207234,2.27178 -0.08861,0.0455 -0.177704,0.0901 -0.267269,0.13364 l 4.677217,-0.80181 0.133634,-1.13589 z"
         style="fill:#f6c38e;fill-opacity:1;stroke:#ff7f01;stroke-width:0.26458332px;stroke-linecap:butt;stroke-linejoin:miter;stroke-opacity:1" />
      <path
         transform="translate(-27.202573,20.211651)"
         sodipodi:nodetypes="csccccc"
         inkscape:original-d="m 89.201203,152.27355 c 0.334351,1.18018 0.712983,2.31607 1.069078,3.4745 0.356095,1.15843 0.06682,3.67496 0.06682,3.67496 0,0 0.668438,-2.49478 1.00226,-3.74177 0.333822,-1.247 1.403165,-2.60588 1.403165,-2.60588 l -1.145399,-2.63072 z"
         inkscape:path-effect="#path-effect914-6"
         inkscape:connector-curvature="0"
         id="path912-9"
         d="m 89.201203,152.27355 c 0.515476,1.10099 0.876456,2.27417 1.069078,3.4745 0.194772,1.21373 0.217341,2.45496 0.06682,3.67496 0.167871,-1.28404 0.505826,-2.54574 1.00226,-3.74177 0.378837,-0.91271 0.849711,-1.78719 1.403165,-2.60588 l -1.145399,-2.63072 z"
         style="fill:#f6c38e;fill-opacity:1;stroke:#ff7f01;stroke-width:0.26458332px;stroke-linecap:butt;stroke-linejoin:miter;stroke-opacity:1" />
      <path
         sodipodi:nodetypes="ccccscccc"
         transform="translate(-16.370259,1.8708867)"
         inkscape:original-d="m 78.015975,161.26717 c -0.872818,0.904 -2.182437,3.71033 -3.086963,4.67721 -0.904528,0.96689 2.151518,1.59026 2.151518,1.59026 l 0.374179,0.28063 c 0,0 1.122796,2.49426 1.403165,3.46115 0.280368,0.96689 4.58367,-1.49672 4.58367,-1.49672 0,0 1.995879,-0.0938 3.461141,-0.56126 1.465265,-0.46746 -2.213618,-3.3055 -2.899873,-5.61266 -3.147866,-3.10024 26.843998,-2.13355 -5.986837,-2.33861 z"
         inkscape:path-effect="#path-effect1168"
         inkscape:connector-curvature="0"
         id="path1166"
         d="m 78.015975,161.26717 c -0.569838,-0.0543 -1.153918,0.0493 -1.670294,0.29634 -0.516377,0.24702 -0.963594,0.63674 -1.278907,1.11449 -0.315314,0.47775 -0.497835,1.04217 -0.521955,1.61408 -0.02412,0.57191 0.110226,1.1497 0.384193,1.6523 0.44061,0.80831 1.249507,1.40619 2.151518,1.59026 l 0.374179,0.28063 c -0.163171,0.64571 -0.115108,1.343 0.135115,1.96022 0.250223,0.61722 0.701295,1.15113 1.26805,1.50093 0.778086,0.48023 1.769757,0.59847 2.638944,0.31465 0.869187,-0.28382 1.599982,-0.9645 1.944726,-1.81137 0.566637,0.24412 1.203385,0.32285 1.812415,0.22409 0.609031,-0.0988 1.18827,-0.37468 1.648726,-0.78535 0.535205,-0.47734 0.905844,-1.13587 1.036206,-1.84107 0.130363,-0.7052 0.01964,-1.45271 -0.309541,-2.08984 -0.329184,-0.63713 -0.874799,-1.15994 -1.525395,-1.46165 -0.650595,-0.3017 -1.402148,-0.38043 -2.101143,-0.2201 z"
         style="fill:#ed6525;fill-opacity:1;stroke:#efec91;stroke-width:0.26458332px;stroke-linecap:butt;stroke-linejoin:miter;stroke-opacity:1" />
      <path
         transform="translate(-7.2029137,-1.8708867)"
         sodipodi:nodetypes="cccccccsc"
         inkscape:original-d="m 80.167494,173.98919 c 1.496973,0.561 5.145204,-3.39903 6.641648,-2.89987 1.496446,0.49917 -0.561266,-3.18051 -0.561266,-3.18051 l 0.280629,-0.46772 c 0,0 1.590518,-5.17638 2.61924,-4.95784 1.028724,0.21853 -5.019947,1.5588 -6.361014,-0.74836 l -0.785767,1.69979 c 0.195278,1.97584 -4.513889,2.81623 -4.239701,4.08187 0.402363,1.85729 1.982183,4.81051 2.406231,6.47264 z"
         inkscape:path-effect="#path-effect1172"
         inkscape:connector-curvature="0"
         id="path1170"
         d="m 80.167494,173.98919 c 1.207932,0.73793 2.778499,0.84547 4.075741,0.27907 1.297241,-0.5664 2.286001,-1.79139 2.565907,-3.17894 0.217918,-1.08027 0.01325,-2.24008 -0.561266,-3.18051 l 0.280629,-0.46772 c 1.041085,-0.22351 1.969106,-0.92624 2.4665,-1.86774 0.497394,-0.94149 0.554863,-2.10414 0.15274,-3.0901 -0.24553,-0.60201 -0.654929,-1.13625 -1.172377,-1.52988 -0.517449,-0.39364 -1.141572,-0.64561 -1.787272,-0.72158 -0.645701,-0.076 -1.311262,0.0243 -1.905938,0.28708 -0.594676,0.26279 -1.116885,0.68743 -1.495427,1.21602 l -0.785767,1.69979 c -0.998869,0.24287 -1.930908,0.75504 -2.671446,1.46801 -0.740539,0.71297 -1.287686,1.62492 -1.568255,2.61386 -0.336077,1.1846 -0.28474,2.47576 0.144329,3.62993 0.429068,1.15417 1.233624,2.16532 2.261902,2.84271 z"
         style="fill:#ccba0f;fill-opacity:1;stroke:#efec91;stroke-width:0.26458332px;stroke-linecap:butt;stroke-linejoin:miter;stroke-opacity:1" />
      <path
         transform="translate(-24.396243,15.627979)"
         sodipodi:nodetypes="cscsccc"
         inkscape:original-d="m 90.06983,139.37779 c 0.467987,-1.51479 0.980252,-3.02931 1.469983,-4.54358 0.489728,-1.51426 -0.200454,-2.40542 -0.200454,-2.40542 0,0 1.024798,2.98424 1.536801,4.47676 0.512003,1.49252 1.292066,2.22698 1.937705,3.34087 l -2.563235,-0.46933 z"
         inkscape:path-effect="#path-effect892-1"
         inkscape:connector-curvature="0"
         id="path890-5"
         d="m 90.06983,139.37779 c 0.878167,-1.34994 1.391007,-2.93508 1.469983,-4.54358 0.03957,-0.80596 -0.02802,-1.61712 -0.200454,-2.40542 0.35009,1.54151 0.866297,3.04524 1.536801,4.47676 0.546758,1.16732 1.195962,2.28664 1.937705,3.34087 -0.854411,-0.15644 -1.708823,-0.31289 -2.563235,-0.46933 -0.726933,-0.1331 -1.453867,-0.2662 -2.1808,-0.3993 z"
         style="fill:#f6c38e;fill-opacity:1;stroke:#ff7f01;stroke-width:0.26458332px;stroke-linecap:butt;stroke-linejoin:miter;stroke-opacity:1" />
      <path
         transform="translate(-24.396243,15.627979)"
         sodipodi:nodetypes="ccccccc"
         inkscape:original-d="m 88.466211,142.78549 c 0.378901,-0.0448 -1.826076,-0.20073 -1.937703,-0.20046 -0.111626,2.6e-4 -5.144937,-2.33861 -5.144937,-2.33861 0,0 1.848879,1.82607 2.939965,2.87314 1.091086,1.04708 0.779801,0.95746 1.135895,1.40317 l 3.992182,0.7561 z"
         inkscape:path-effect="#path-effect926-7"
         inkscape:connector-curvature="0"
         id="path924-3"
         d="m 88.466211,142.78549 c -0.649945,-0.0134 -1.298771,-0.0806 -1.937703,-0.20046 -1.869583,-0.35083 -3.6513,-1.1607 -5.144937,-2.33861 1.055314,0.87636 2.039578,1.83825 2.939965,2.87314 0.395072,0.45409 0.774022,0.92221 1.135895,1.40317 l 3.992182,0.7561 z"
         style="fill:#f6c38e;fill-opacity:1;stroke:#ff7f01;stroke-width:0.26458332px;stroke-linecap:butt;stroke-linejoin:miter;stroke-opacity:1" />
      <path
         transform="translate(-24.396243,15.627979)"
         sodipodi:nodetypes="cccsccc"
         inkscape:original-d="m 85.392612,144.72319 c -1.180174,0.0443 -1.78153,0.35606 -2.939963,0.4009 -1.158433,0.0448 -2.939966,-0.13365 -2.939966,-0.13365 0,0 1.581609,0.84609 2.472244,1.1359 0.890633,0.28981 1.31434,0.84609 1.870886,1.40316 l 1.610958,-1.19868 z"
         inkscape:path-effect="#path-effect938-6"
         inkscape:connector-curvature="0"
         id="path936-3"
         d="m 85.392612,144.72319 c -0.96515,0.2223 -1.950533,0.35666 -2.939963,0.4009 -0.981349,0.0439 -1.966645,-9.2e-4 -2.939966,-0.13365 0.863821,0.28265 1.695107,0.66459 2.472244,1.1359 0.667611,0.40489 1.295263,0.87562 1.870886,1.40316 l 1.610958,-1.19868 z"
         style="fill:#f6c38e;fill-opacity:1;stroke:#ff7f01;stroke-width:0.26458332px;stroke-linecap:butt;stroke-linejoin:miter;stroke-opacity:1" />
      <path
         transform="translate(-11.599497,3.367596)"
         inkscape:original-d="m 84.1899,166.78629 c 0.810982,0.34273 1.6217,0.68572 2.432153,1.02898 0.810453,0.34326 2.182966,-1.87115 3.274052,-2.80633 1.091086,-0.93518 -0.997543,-2.86895 -1.496711,-4.30304"
         inkscape:path-effect="#path-effect1188"
         inkscape:connector-curvature="0"
         id="path1186"
         d="m 84.1899,166.78629 c 0.611194,0.67196 1.524285,1.05826 2.432153,1.02898 0.770904,-0.0249 1.523775,-0.3414 2.10237,-0.85143 0.578595,-0.51004 0.98353,-1.2069 1.171682,-1.9549 0.196081,-0.77953 0.159117,-1.61612 -0.104951,-2.37531 -0.264067,-0.7592 -0.754251,-1.43815 -1.39176,-1.92773"
         style="fill:none;stroke:#978a0b;stroke-width:0.26458332px;stroke-linecap:butt;stroke-linejoin:miter;stroke-opacity:1" />
      <path
         transform="translate(-24.930782,17.565683)"
         sodipodi:nodetypes="cccccscccscccscc"
         inkscape:original-d="m 95.482038,138.44235 c 0,0 -0.08883,-0.17844 -0.133635,-0.26727 -0.04481,-0.0888 -2.004257,-1.09161 -4.009042,-1.00224 -2.004788,0.0893 -2.338606,5.14494 -2.338606,5.14494 l -0.53454,0.53454 c 0,0 -2.471979,0.77927 -3.741773,1.20271 -1.269796,0.42344 2.405425,3.74177 2.405425,3.74177 0,0 0.579348,1.42518 1.135897,2.13816 0.556546,0.71298 3.541321,-0.53454 3.541321,-0.53454 0,0 1.826606,1.71472 3.0736,2.33861 1.246992,0.62389 3.474502,-3.4745 3.474502,-3.4745 0,0 3.563863,-0.7798 5.345393,-1.87088 1.78153,-1.09109 -3.60814,-5.47904 -3.60814,-5.47904 0,0 -0.333867,-1.93797 -0.601357,-2.87315 -0.267533,-0.93518 -4.009042,0.40091 -4.009042,0.40091 z"
         inkscape:path-effect="#path-effect828-2"
         inkscape:connector-curvature="0"
         id="path826-1"
         d="m 95.482038,138.44235 c -0.03901,-0.0917 -0.08367,-0.18103 -0.133635,-0.26727 -0.378295,-0.65289 -1.061157,-1.10493 -1.798477,-1.26534 -0.737319,-0.16042 -1.520864,-0.043 -2.210565,0.2631 -0.941617,0.41788 -1.720849,1.19016 -2.147139,2.128 -0.426289,0.93784 -0.495776,2.03274 -0.191467,3.01694 l -0.53454,0.53454 c -0.638797,-0.36941 -1.435222,-0.45468 -2.137743,-0.22887 -0.70252,0.22581 -1.300109,0.75915 -1.60403,1.43158 -0.36233,0.80166 -0.290027,1.78467 0.185697,2.52468 0.475725,0.74002 1.339997,1.2139 2.219728,1.21709 0.0069,0.83888 0.44463,1.66285 1.135897,2.13816 0.541487,0.37232 1.22642,0.53 1.876199,0.43192 0.649779,-0.0981 1.257656,-0.4509 1.665122,-0.96646 0.207117,0.65392 0.62045,1.24085 1.166336,1.6562 0.545887,0.41535 1.221793,0.65718 1.907264,0.68241 0.918425,0.0338 1.844703,-0.33007 2.494568,-0.97993 0.649864,-0.64987 1.013731,-1.57614 0.979934,-2.49457 0.938567,0.48599 2.078603,0.56655 3.076193,0.2174 0.99758,-0.34916 1.83855,-1.12307 2.2692,-2.08828 0.26491,-0.59375 0.37778,-1.25459 0.32495,-1.9026 -0.0528,-0.64802 -0.27124,-1.28186 -0.62882,-1.82485 -0.35758,-0.543 -0.85359,-0.99403 -1.42804,-1.29854 -0.57444,-0.30452 -1.22613,-0.46188 -1.87623,-0.45305 0.19519,-0.48091 0.24365,-1.02025 0.13732,-1.52825 -0.10632,-0.508 -0.36701,-0.98263 -0.738677,-1.3449 -0.547729,-0.53388 -1.336868,-0.80989 -2.097946,-0.73378 -0.761077,0.0761 -1.479933,0.50292 -1.911096,1.13469 z"
         style="fill:#ef9736;fill-opacity:1;stroke:#efec91;stroke-width:0.26499999;stroke-linecap:round;stroke-linejoin:miter;stroke-miterlimit:4;stroke-dasharray:none;stroke-opacity:1;paint-order:normal" />
      <path
         transform="translate(-24.930782,17.565683)"
         sodipodi:nodetypes="ccc"
         inkscape:original-d="m 94.613412,138.17508 c -1.883036,-0.13306 -2.446148,-0.42699 -3.557535,0.70871 -0.557075,0.55708 -0.651962,4.23577 -0.651962,4.23577"
         inkscape:path-effect="#path-effect844-1"
         inkscape:connector-curvature="0"
         id="path842-8"
         d="m 94.613412,138.17508 c -0.596581,-0.22178 -1.255033,-0.27433 -1.879238,-0.14998 -0.624205,0.12435 -1.212251,0.42522 -1.678297,0.85869 -0.564153,0.52472 -0.944723,1.24312 -1.06193,2.00461 -0.117206,0.76149 0.02972,1.56108 0.409968,2.23116"
         style="fill:none;stroke:#efec90;stroke-width:0.26458332px;stroke-linecap:butt;stroke-linejoin:miter;stroke-opacity:1" />
      <path
         transform="translate(-23.794887,19.236118)"
         inkscape:original-d="m 92.074351,146.72771 c 0.312078,0.40063 0.57935,0.75699 0.868627,1.13589 0.289277,0.3789 1.470247,-0.0448 2.204974,-0.0668"
         inkscape:path-effect="#path-effect856-7"
         inkscape:connector-curvature="0"
         id="path854-9"
         d="m 92.074351,146.72771 c 0.138357,0.46735 0.45385,0.87992 0.868627,1.13589 0.331347,0.20448 0.723327,0.30931 1.112512,0.29752 0.389186,-0.0118 0.774101,-0.14015 1.092462,-0.36432"
         style="fill:none;stroke:#dc5e10;stroke-width:0.26458332px;stroke-linecap:butt;stroke-linejoin:miter;stroke-opacity:1" />
      <path
         transform="translate(-24.930782,17.565683)"
         inkscape:original-d="m 95.482038,140.64733 c 0.601621,0.11109 1.202976,0.22245 1.80407,0.33408 0.601091,0.11163 0.312078,1.02427 0.46772,1.5368"
         inkscape:path-effect="#path-effect860-8"
         inkscape:connector-curvature="0"
         id="path858-6"
         d="m 95.482038,140.64733 c 0.298046,-0.12718 0.633838,-0.16431 0.952468,-0.1053 0.31863,0.059 0.618862,0.21391 0.851602,0.43938 0.200745,0.19448 0.351067,0.44057 0.432447,0.70796 0.08138,0.26739 0.09364,0.5555 0.03527,0.82884"
         style="fill:none;stroke:#dc5e10;stroke-width:0.26458332px;stroke-linecap:butt;stroke-linejoin:miter;stroke-opacity:1" />
      <path
         transform="translate(-24.930782,17.565683)"
         inkscape:original-d="m 101.56242,143.05275 c 0.15617,1.09109 0.40117,2.09335 0.60136,3.14042 0.20018,1.04707 -3.073338,0.17791 -4.610403,0.26727"
         inkscape:path-effect="#path-effect864-5"
         inkscape:connector-curvature="0"
         id="path862-4"
         d="m 101.56242,143.05275 c 0.42428,0.38354 0.71921,0.90773 0.82678,1.46947 0.10756,0.56173 0.0271,1.1578 -0.22542,1.67095 -0.20615,0.41884 -0.52506,0.78151 -0.91408,1.03955 -0.38903,0.25803 -0.84719,0.41077 -1.313226,0.43779 -0.46604,0.027 -0.938776,-0.0718 -1.355013,-0.28311 -0.416238,-0.21135 -0.774915,-0.53475 -1.028084,-0.92696"
         style="fill:none;stroke:#dc5e10;stroke-width:0.26458332px;stroke-linecap:butt;stroke-linejoin:miter;stroke-opacity:1" />
      <path
         transform="translate(-24.930782,17.565683)"
         inkscape:original-d="m 94.680229,147.19543 c 1.069343,-0.24526 2.093876,-0.53481 3.140416,-0.80181 1.046541,-0.26701 0.445715,-1.51479 0.668174,-2.27179"
         inkscape:path-effect="#path-effect868-7"
         inkscape:connector-curvature="0"
         id="path866-3"
         d="m 94.680229,147.19543 c 0.538712,0.20017 1.138648,0.23193 1.695484,0.0898 0.556836,-0.14217 1.068116,-0.45765 1.444932,-0.89157 0.533775,-0.61467 0.784171,-1.46601 0.668174,-2.27179"
         style="fill:none;stroke:#dc5e10;stroke-width:0.26458332px;stroke-linecap:butt;stroke-linejoin:miter;stroke-opacity:1" />
      <path
         transform="translate(-24.930782,17.565683)"
         sodipodi:nodetypes="ccc"
         inkscape:original-d="m 89.802561,148.06406 c 0.267533,-0.71299 -1.536537,-3.16296 -1.26953,-3.87541 0.267004,-0.71245 2.116148,-0.75754 3.006781,-1.06909"
         inkscape:path-effect="#path-effect872-4"
         inkscape:connector-curvature="0"
         id="path870-3"
         d="m 89.802561,148.06406 c -0.72804,-0.27647 -1.317973,-0.89441 -1.560409,-1.63448 -0.242437,-0.74007 -0.132466,-1.58728 0.290879,-2.24093 0.310845,-0.47995 0.783178,-0.85327 1.321953,-1.04483 0.538774,-0.19157 1.140762,-0.20024 1.684828,-0.0243"
         style="fill:none;stroke:#efec90;stroke-width:0.26458332px;stroke-linecap:butt;stroke-linejoin:miter;stroke-opacity:1" />
      <path
         transform="translate(-24.930782,17.565683)"
         inkscape:original-d="m 88.733483,143.92137 c -0.712454,-0.11162 -1.425172,-0.22298 -2.138156,-0.33408 -0.712986,-0.1111 -0.534276,1.11336 -0.801809,1.67043"
         inkscape:path-effect="#path-effect876-1"
         inkscape:connector-curvature="0"
         id="path874-3"
         d="m 88.733483,143.92137 c -0.257965,-0.29462 -0.621517,-0.4948 -1.008421,-0.55525 -0.386904,-0.0605 -0.794191,0.0193 -1.129735,0.22117 -0.280141,0.16856 -0.509403,0.42048 -0.650881,0.71523 -0.141478,0.29474 -0.19464,0.63119 -0.150928,0.9552"
         style="fill:none;stroke:#efec90;stroke-width:0.26458332px;stroke-linecap:butt;stroke-linejoin:miter;stroke-opacity:1" />
      <path
         transform="translate(-11.599497,3.367596)"
         inkscape:original-d="m 71.374327,162.20261 c -0.124462,0.561 -0.186825,1.18463 -0.280633,1.77735 -0.09381,0.59271 1.621698,0.74808 2.432151,1.12253"
         inkscape:path-effect="#path-effect1176"
         inkscape:connector-curvature="0"
         id="path1174"
         d="m 71.374327,162.20261 c -0.19094,0.24772 -0.318486,0.5439 -0.367266,0.85284 -0.04878,0.30894 -0.01869,0.63001 0.08663,0.92451 0.167429,0.46814 0.529034,0.86343 0.980455,1.07178 0.451421,0.20834 0.986827,0.22706 1.451696,0.0507"
         style="fill:none;stroke:#e1972f;stroke-width:0.26458332px;stroke-linecap:butt;stroke-linejoin:miter;stroke-opacity:1" />
      <path
         transform="translate(-11.599497,3.367596)"
         inkscape:original-d="m 73.993567,166.13147 c 0.280898,0.62337 0.561531,1.247 0.841899,1.87089 0.280368,0.62389 2.307693,-1.6217 3.461142,-2.43215"
         inkscape:path-effect="#path-effect1180"
         inkscape:connector-curvature="0"
         id="path1178"
         d="m 73.993567,166.13147 c -0.04263,0.7099 0.28231,1.43199 0.841899,1.87089 0.370186,0.29034 0.83513,0.4578 1.305433,0.47016 0.470303,0.0124 0.943404,-0.13042 1.328335,-0.40091 0.384931,-0.2705 0.679596,-0.66722 0.827337,-1.11388 0.147742,-0.44667 0.147755,-0.94085 3.7e-5,-1.38752"
         style="fill:none;stroke:#a5460c;stroke-width:0.26458332px;stroke-linecap:butt;stroke-linejoin:miter;stroke-opacity:1" />
      <path
         transform="translate(-11.599497,3.367596)"
         inkscape:original-d="m 78.015975,167.25401 c 0.592711,0.12446 1.185158,0.31155 1.777341,0.46772 0.592182,0.15617 1.060434,-0.6239 1.590254,-0.93544"
         inkscape:path-effect="#path-effect1184"
         inkscape:connector-curvature="0"
         id="path1182"
         d="m 78.015975,167.25401 c 0.500131,0.38102 1.154444,0.55321 1.777341,0.46772 0.625447,-0.0858 1.211345,-0.43048 1.590254,-0.93544"
         style="fill:none;stroke:#a5460c;stroke-width:0.26458332px;stroke-linecap:butt;stroke-linejoin:miter;stroke-opacity:1" />
      <path
         transform="translate(-11.599497,3.367596)"
         inkscape:original-d="m 91.11218,160.05109 c 0.405625,-0.46798 0.873345,-1.06043 1.309621,-1.59025 0.436275,-0.52982 -0.810453,-1.37225 -1.216077,-2.05798"
         inkscape:path-effect="#path-effect1192"
         inkscape:connector-curvature="0"
         id="path1190"
         d="m 91.11218,160.05109 c 0.343267,-0.11472 0.653088,-0.32768 0.883169,-0.60706 0.230082,-0.27939 0.379683,-0.6243 0.426452,-0.98319 0.05546,-0.42559 -0.03535,-0.86888 -0.253691,-1.23838 -0.218341,-0.3695 -0.562833,-0.66288 -0.962386,-0.8196"
         style="fill:none;stroke:#978a0b;stroke-width:0.26458332px;stroke-linecap:butt;stroke-linejoin:miter;stroke-opacity:1" />
    </g>
  </g>
</svg>
